<svg width="118" height="38" viewBox="0 0 118 38" fill="none" xmlns="http://www.w3.org/2000/svg">
<path d="M49.38 16.7V19.68C49.38 21.3733 48.9533 22.72 48.1 23.72C47.26 24.7067 46.0467 25.2 44.46 25.2C42.8733 25.2 41.6533 24.7067 40.8 23.72C39.96 22.72 39.54 21.3733 39.54 19.68V16.7C39.54 15.02 39.96 13.6867 40.8 12.7C41.6533 11.7 42.8733 11.2 44.46 11.2C46.0467 11.2 47.26 11.7 48.1 12.7C48.9533 13.6867 49.38 15.02 49.38 16.7ZM47.58 16.7C47.58 15.46 47.3133 14.5067 46.78 13.84C46.26 13.16 45.4867 12.82 44.46 12.82C43.4467 12.82 42.6733 13.16 42.14 13.84C41.6067 14.5067 41.34 15.46 41.34 16.7V19.68C41.34 20.9333 41.6067 21.9 42.14 22.58C42.6733 23.26 43.4467 23.6 44.46 23.6C45.4867 23.6 46.26 23.26 46.78 22.58C47.3133 21.9 47.58 20.9333 47.58 19.68V16.7ZM54.2492 19.7C54.2492 20.9533 54.4959 21.92 54.9892 22.6C55.4959 23.2667 56.2692 23.6 57.3092 23.6C57.7626 23.6 58.2092 23.5467 58.6492 23.44C59.0892 23.3333 59.6159 23.1467 60.2292 22.88L60.8092 24.36C60.1559 24.6533 59.5359 24.8667 58.9492 25C58.3626 25.1333 57.7959 25.2 57.2492 25.2C55.6759 25.2 54.4826 24.7067 53.6692 23.72C52.8559 22.7333 52.4492 21.3933 52.4492 19.7V16.7C52.4492 15.0067 52.8559 13.6667 53.6692 12.68C54.4826 11.6933 55.6759 11.2 57.2492 11.2C57.7959 11.2 58.3626 11.2667 58.9492 11.4C59.5492 11.5333 60.1559 11.7467 60.7692 12.04L60.2092 13.54C59.1292 13.06 58.1626 12.82 57.3092 12.82C56.2692 12.82 55.4959 13.1533 54.9892 13.82C54.4959 14.4867 54.2492 15.4467 54.2492 16.7V19.7ZM66.4352 23.64C67.2752 23.64 67.9218 23.46 68.3752 23.1C68.8285 22.7267 69.0552 22.1867 69.0552 21.48C69.0552 20.8933 68.8952 20.4 68.5752 20C68.2685 19.6 67.7618 19.2933 67.0552 19.08L65.4352 18.6C64.4218 18.2933 63.6752 17.8333 63.1952 17.22C62.7152 16.5933 62.4752 15.8267 62.4752 14.92C62.4752 14.2267 62.6085 13.6 62.8752 13.04C63.1552 12.48 63.5952 12.0333 64.1952 11.7C64.8085 11.3667 65.6085 11.2 66.5952 11.2C67.1952 11.2 67.8152 11.2733 68.4552 11.42C69.0952 11.5533 69.7418 11.7733 70.3952 12.08L69.8352 13.58C69.1952 13.3 68.6152 13.1 68.0952 12.98C67.5885 12.8467 67.1018 12.78 66.6352 12.78C65.8752 12.78 65.2818 12.94 64.8552 13.26C64.4418 13.5667 64.2352 14.08 64.2352 14.8C64.2352 15.32 64.3752 15.76 64.6552 16.12C64.9352 16.4667 65.4352 16.7533 66.1552 16.98L67.7752 17.46C69.8018 18.06 70.8152 19.3533 70.8152 21.34C70.8152 22.4867 70.4685 23.42 69.7752 24.14C69.0818 24.8467 67.9685 25.2 66.4352 25.2C65.8085 25.2 65.1418 25.1267 64.4352 24.98C63.7418 24.82 63.0218 24.5733 62.2752 24.24L62.8152 22.76C63.5218 23.08 64.1552 23.3067 64.7152 23.44C65.2885 23.5733 65.8618 23.64 66.4352 23.64ZM78.8523 24.64C78.1057 25.0133 77.3123 25.2 76.4723 25.2C75.7523 25.2 75.1857 25.0533 74.7723 24.76C74.3723 24.4667 74.0857 24.0733 73.9123 23.58C73.7523 23.0867 73.6723 22.54 73.6723 21.94V16.54H71.9523V15.1H73.6723V12.34H75.3123V15.1H78.5523V16.54H75.3123V21.88C75.3123 22.5733 75.4257 23.0533 75.6523 23.32C75.8923 23.5733 76.259 23.7 76.7523 23.7C76.9923 23.7 77.239 23.6733 77.4923 23.62C77.759 23.5533 78.0457 23.4467 78.3523 23.3L78.8523 24.64ZM87.11 25V23.6C86.4167 24.2 85.7967 24.62 85.25 24.86C84.7033 25.0867 84.1567 25.2 83.61 25.2C82.73 25.2 82.0567 24.9133 81.59 24.34C81.1233 23.7533 80.89 22.9333 80.89 21.88V15.1H82.53V21.64C82.53 22.3333 82.65 22.8467 82.89 23.18C83.1433 23.5 83.5167 23.66 84.01 23.66C84.3833 23.66 84.8033 23.5667 85.27 23.38C85.7367 23.1933 86.3167 22.82 87.01 22.26V15.1H88.65V25H87.11ZM98.2019 25V23.62C97.5885 24.2067 97.0285 24.62 96.5219 24.86C96.0285 25.0867 95.5152 25.2 94.9819 25.2C93.9285 25.2 93.1152 24.8 92.5419 24C91.9819 23.2 91.7019 22.08 91.7019 20.64V19.48C91.7019 18.08 92.0485 16.9667 92.7419 16.14C93.4485 15.3133 94.4685 14.9 95.8019 14.9C96.1885 14.9 96.5752 14.94 96.9619 15.02C97.3485 15.1 97.7352 15.2133 98.1219 15.36V10.2H99.7619V25H98.2019ZM93.4019 20.64C93.4019 21.68 93.5619 22.4467 93.8819 22.94C94.2152 23.42 94.7085 23.66 95.3619 23.66C95.7485 23.66 96.1485 23.5667 96.5619 23.38C96.9752 23.18 97.4952 22.7733 98.1219 22.16V16.88C97.7352 16.7067 97.3619 16.5867 97.0019 16.52C96.6419 16.44 96.2885 16.4 95.9419 16.4C95.0352 16.4 94.3819 16.6733 93.9819 17.22C93.5952 17.7667 93.4019 18.52 93.4019 19.48V20.64ZM105.035 12.68H103.195V10.84H105.035V12.68ZM104.935 25H103.295V15.1H104.935V25ZM116.311 19.44V20.64C116.311 22.0533 115.944 23.1667 115.211 23.98C114.491 24.7933 113.458 25.2 112.111 25.2C110.778 25.2 109.744 24.7933 109.011 23.98C108.278 23.1667 107.911 22.0533 107.911 20.64V19.44C107.911 18.0533 108.271 16.9533 108.991 16.14C109.724 15.3133 110.764 14.9 112.111 14.9C113.458 14.9 114.491 15.3133 115.211 16.14C115.944 16.9533 116.311 18.0533 116.311 19.44ZM114.611 19.44C114.611 18.4933 114.398 17.7533 113.971 17.22C113.544 16.6733 112.924 16.4 112.111 16.4C111.311 16.4 110.691 16.6733 110.251 17.22C109.824 17.7533 109.611 18.4933 109.611 19.44V20.64C109.611 21.6267 109.824 22.3867 110.251 22.92C110.691 23.4533 111.311 23.72 112.111 23.72C112.924 23.72 113.544 23.4533 113.971 22.92C114.398 22.3867 114.611 21.6267 114.611 20.64V19.44Z" fill="black"/>
<path d="M19 7L30.2583 26.5H7.74167L19 7Z" fill="#FF4043"/>
<line x1="39" y1="28.5" x2="118" y2="28.5" stroke="black" stroke-opacity="0.53"/>
<path d="M33.25 25.3333V12.6667C33.2494 12.1114 33.1028 11.5659 32.8249 11.0852C32.547 10.6044 32.1476 10.2052 31.6667 9.9275L20.5833 3.59417C20.1019 3.31623 19.5559 3.16991 19 3.16991C18.4441 3.16991 17.8981 3.31623 17.4167 3.59417L6.33333 9.9275C5.85242 10.2052 5.45297 10.6044 5.17506 11.0852C4.89716 11.5659 4.75057 12.1114 4.75 12.6667V25.3333C4.75057 25.8886 4.89716 26.434 5.17506 26.9148C5.45297 27.3956 5.85242 27.7948 6.33333 28.0725L17.4167 34.4058C17.8981 34.6838 18.4441 34.8301 19 34.8301C19.5559 34.8301 20.1019 34.6838 20.5833 34.4058L31.6667 28.0725C32.1476 27.7948 32.547 27.3956 32.8249 26.9148C33.1028 26.434 33.2494 25.8886 33.25 25.3333Z" stroke="#1E1E1E" stroke-width="4" stroke-linecap="round" stroke-linejoin="round"/>
</svg>
